# Blender 4.4.1
# www.blender.org
mtllib enemy.mtl
o 立方体
v -0.400077 -0.400077 0.669188
v -0.400077 0.400077 0.669188
v -0.400077 -0.400077 -0.669188
v -0.400077 0.400077 -0.669188
v 0.400077 -0.400077 0.669188
v 0.400077 0.400077 0.669188
v 0.400077 -0.400077 -0.669188
v 0.400077 0.400077 -0.669188
v -0.520099 -0.520099 0.669188
v -0.520099 0.520099 0.669188
v 0.520099 -0.520099 0.669188
v 0.520099 0.520099 0.669188
v -0.520099 -0.520099 -0.669188
v -0.520099 0.520099 -0.669188
v 0.520099 -0.520099 -0.669188
v 0.520099 0.520099 -0.669188
v -0.520099 -0.520099 0.936863
v -0.520099 0.520099 0.936863
v 0.520099 -0.520099 0.936863
v 0.520099 0.520099 0.936863
v -0.520099 -0.520099 -0.936863
v -0.520099 0.520099 -0.936863
v 0.520099 -0.520099 -0.936863
v 0.520099 0.520099 -0.936863
vn -1.0000 -0.0000 -0.0000
vn 1.0000 -0.0000 -0.0000
vn -0.0000 -1.0000 -0.0000
vn -0.0000 1.0000 -0.0000
vn -0.0000 -0.0000 -1.0000
vn -0.0000 -0.0000 1.0000
vt 0.625000 0.000000
vt 0.375000 0.250000
vt 0.375000 0.000000
vt 0.625000 0.500000
vt 0.375000 0.750000
vt 0.375000 0.500000
vt 0.125000 0.750000
vt 0.125000 0.500000
vt 0.875000 0.500000
vt 0.625000 0.750000
vt 0.875000 0.750000
vt 0.625000 0.250000
s 0
usemtl マテリアル
f 2/1/1 3/2/1 1/3/1
f 8/4/2 5/5/2 7/6/2
f 7/6/3 1/7/3 3/8/3
f 4/9/4 6/10/4 8/4/4
f 6/10/5 11/5/5 5/5/5
f 1/3/5 10/1/5 2/1/5
f 5/5/5 9/7/5 1/7/5
f 2/11/5 12/10/5 6/10/5
f 8/4/6 14/9/6 4/9/6
f 4/12/6 13/2/6 3/2/6
f 7/6/6 16/4/6 8/4/6
f 3/8/6 15/6/6 7/6/6
f 10/11/4 20/10/4 12/10/4
f 12/10/2 19/5/2 11/5/2
f 16/4/4 22/9/4 14/9/4
f 14/12/1 21/2/1 13/2/1
f 11/5/3 17/7/3 9/7/3
f 15/6/2 24/4/2 16/4/2
f 9/3/1 18/1/1 10/1/1
f 13/8/3 23/6/3 15/6/3
f 19/5/6 18/11/6 17/7/6
f 22/9/5 23/6/5 21/8/5
f 2/1/1 4/12/1 3/2/1
f 8/4/2 6/10/2 5/5/2
f 7/6/3 5/5/3 1/7/3
f 4/9/4 2/11/4 6/10/4
f 6/10/5 12/10/5 11/5/5
f 1/3/5 9/3/5 10/1/5
f 5/5/5 11/5/5 9/7/5
f 2/11/5 10/11/5 12/10/5
f 8/4/6 16/4/6 14/9/6
f 4/12/6 14/12/6 13/2/6
f 7/6/6 15/6/6 16/4/6
f 3/8/6 13/8/6 15/6/6
f 10/11/4 18/11/4 20/10/4
f 12/10/2 20/10/2 19/5/2
f 16/4/4 24/4/4 22/9/4
f 14/12/1 22/12/1 21/2/1
f 11/5/3 19/5/3 17/7/3
f 15/6/2 23/6/2 24/4/2
f 9/3/1 17/3/1 18/1/1
f 13/8/3 21/8/3 23/6/3
f 19/5/6 20/10/6 18/11/6
f 22/9/5 24/4/5 23/6/5
o 立方体.001
