# Blender 4.4.1
# www.blender.org
mtllib hurman.mtl
o 立方体
v -0.305992 2.702065 0.629673
v -0.503505 5.222459 0.861477
v -0.305992 2.702065 -0.629673
v -0.503505 5.222459 -0.861477
v 0.382103 2.702065 0.606749
v -0.020254 5.225172 0.861477
v 0.382103 2.702065 -0.606749
v -0.020254 5.225172 -0.861477
v -0.159956 3.658729 0.493522
v -0.159956 3.658729 -0.493522
v 0.360098 3.658729 -0.621229
v 0.360098 3.658729 0.621229
v -0.503505 4.902347 0.861477
v -0.503505 4.902347 -0.861477
v -0.020254 4.899633 -0.861477
v -0.020254 4.899633 0.861477
v -0.337664 3.221959 -0.549094
v 0.451441 3.171216 -0.560732
v 0.451441 3.171216 0.560732
v -0.337664 3.221959 0.549094
v -0.225026 2.976663 0.000000
v -0.400000 5.245258 0.000000
v 0.314324 2.859123 0.000000
v 0.400000 4.913268 0.000000
v 0.400000 3.658729 0.000000
v -0.159956 3.658729 0.000000
v 0.509480 4.665565 0.000000
v -0.352794 4.764839 0.000000
v -0.349995 3.171216 0.000000
v 0.400000 3.171216 0.000000
v -0.305992 2.702065 0.278502
v 0.400000 4.913268 0.430739
v 0.400000 3.658729 0.327416
v 0.509480 4.665565 0.430739
v 0.451441 3.171216 0.364284
v -0.493377 5.245258 0.430739
v 0.315361 2.702065 0.286000
v -0.193222 3.693572 0.327416
v -0.493377 4.622629 0.430739
v -0.365674 3.305454 0.317510
v -0.493377 5.245258 -0.430739
v 0.315361 2.702065 -0.286000
v -0.193222 3.693572 -0.327416
v -0.493377 4.622629 -0.430739
v -0.361020 3.305454 -0.317510
v -0.305992 2.702065 -0.278502
v 0.400000 4.913268 -0.430739
v 0.400000 3.658729 -0.327416
v 0.509480 4.665565 -0.430739
v 0.451441 3.171216 -0.364284
v -0.410129 4.902347 -2.728271
v -0.410129 5.222459 -2.728271
v -0.020254 5.225172 -2.728271
v -0.020254 4.899633 -2.728271
v -0.020254 4.899633 2.728271
v -0.020254 5.225172 2.728271
v -0.410129 5.222459 2.728271
v -0.410129 4.902347 2.728271
v -0.382103 0.452773 0.432667
v 0.298729 0.452773 0.186553
v 0.298729 0.452773 0.850413
v -0.382103 0.452773 0.648844
v -0.382103 0.452773 -0.648844
v 0.298729 0.452773 -0.850413
v 0.298729 0.452773 -0.186553
v -0.382103 0.452773 -0.432667
v -0.449399 4.751088 -3.235529
v -0.449399 5.373717 -3.235529
v -0.020254 5.225172 -3.235529
v -0.020254 4.899633 -3.235529
v -0.020254 4.899633 3.235529
v -0.020254 5.225172 3.235529
v -0.449399 5.373717 3.235529
v -0.449399 4.751088 3.235529
v -0.400000 -0.032945 0.188980
v 0.400000 -0.032945 0.188980
v 0.400000 -0.032945 0.861477
v -0.400000 -0.032945 0.861477
v -0.400000 -0.032945 -0.861477
v 0.400000 -0.032945 -0.861477
v 0.400000 -0.032945 -0.188980
v -0.400000 -0.032945 -0.188980
v 1.066241 0.198537 0.861477
v 1.066241 -0.032945 0.861477
v 1.066241 -0.032945 0.188980
v 1.066241 0.198537 0.188980
v 1.066241 0.198537 -0.188980
v 1.066241 -0.032945 -0.188980
v 1.066241 -0.032945 -0.861477
v 1.066241 0.198537 -0.861477
v -0.075695 5.306110 -0.861477
v 0.200000 2.754742 0.744166
v 0.073460 3.658729 -0.654832
v -0.075695 4.818696 -0.861477
v 0.251441 3.171216 -0.728569
v 0.090063 5.329657 0.000000
v 0.090063 5.329657 0.237342
v 0.090063 5.329657 -0.237342
v -0.075695 4.818696 -2.728271
v -0.075695 5.306110 2.728271
v 0.121980 0.400096 0.861477
v 0.200000 0.400096 -0.188980
v -0.036424 4.751088 -3.235529
v -0.031642 5.373717 3.230336
v 0.200000 -0.032945 0.861477
v 0.200000 -0.032945 -0.188980
v 0.200000 2.754742 -0.744166
v -0.075695 5.306110 0.861477
v 0.073460 3.658729 0.654832
v -0.075695 4.721672 0.861477
v 0.251441 3.162516 0.728569
v 0.157524 2.754742 0.000000
v 0.200000 2.754742 0.188980
v 0.200000 2.754742 -0.188980
v -0.075695 5.306110 -2.728271
v -0.075695 4.818696 2.728271
v 0.200000 0.400096 0.188980
v 0.121980 0.400096 -0.861477
v -0.036424 5.373717 -3.235529
v -0.031642 4.751088 3.230336
v 0.200000 -0.032945 0.188980
v 0.200000 -0.032945 -0.861477
v -0.088458 2.754742 -0.744166
v -0.369329 5.362254 0.861477
v 0.027476 3.658729 0.654832
v -0.275952 4.818424 0.861477
v -0.088458 3.171216 0.728569
v -0.064734 2.842975 0.000000
v -0.200000 2.754742 0.188980
v -0.200000 2.754742 -0.188980
v -0.275952 5.306110 -2.728271
v -0.275952 4.818696 2.728271
v -0.200000 0.400096 0.188980
v -0.200000 0.400096 -0.861477
v -0.364829 5.373717 -3.235529
v -0.360048 4.751088 3.230336
v -0.200000 -0.032945 0.188980
v -0.200000 -0.032945 -0.861477
v -0.369329 5.362254 -0.861477
v -0.088458 2.754742 0.744166
v 0.027476 3.658729 -0.654832
v -0.275952 4.721400 -0.861477
v -0.088458 3.171216 -0.728569
v -0.309937 5.437348 0.000000
v -0.403314 5.437348 0.237342
v -0.403314 5.437348 -0.237342
v -0.275952 4.818696 -2.728271
v -0.275952 5.306110 2.728271
v -0.200000 0.400096 0.861477
v -0.200000 0.400096 -0.188980
v -0.364829 4.751088 -3.235529
v -0.360048 5.373717 3.230336
v -0.200000 -0.032945 0.861477
v -0.200000 -0.032945 -0.188980
v -0.309937 5.652586 0.000000
v 0.074096 5.652586 -0.000000
v -0.309937 5.652586 0.205170
v -0.062476 5.652586 0.158549
v -0.309937 5.652586 -0.205170
v -0.062476 5.652586 -0.158549
v -0.020254 5.225172 1.794874
v -0.020254 4.899633 1.794874
v -0.410129 5.222459 1.794874
v -0.410129 4.902347 1.794874
v -0.075695 4.818696 1.794874
v -0.075695 5.306110 1.794874
v -0.275952 5.306110 1.794874
v -0.275952 4.818424 1.794874
v -0.410129 5.222459 -1.794874
v -0.410129 4.902347 -1.794874
v -0.020254 5.225172 -1.794874
v -0.020254 4.899633 -1.794874
v -0.075695 5.306110 -1.794874
v -0.075695 4.818696 -1.794874
v -0.275952 4.818424 -1.794874
v -0.275952 5.306110 -1.794874
v 0.306384 1.577419 0.314309
v -0.306384 1.577419 0.363405
v 0.306384 1.577419 0.559895
v -0.306384 1.577419 0.662690
v 0.160367 1.577419 0.237318
v 0.082347 1.577419 0.764440
v -0.160367 1.577419 0.764440
v -0.160367 1.577419 0.237005
v 0.306384 1.577419 -0.559895
v -0.306384 1.577419 -0.662690
v 0.306384 1.577419 -0.314622
v -0.306384 1.577419 -0.363405
v 0.082347 1.577419 -0.764440
v 0.160367 1.577419 -0.237005
v -0.160367 1.577419 -0.237005
v -0.160367 1.577419 -0.764440
v 0.401996 6.722905 -0.428909
v 0.357428 5.835146 -0.428909
v 0.401996 6.722905 0.428909
v 0.357428 5.835146 0.428909
v -0.525576 6.722905 -0.428909
v -0.525576 5.865088 -0.428909
v -0.525576 6.722905 0.428909
v -0.525576 5.865088 0.428909
v -0.588139 5.802525 -0.254472
v -0.619565 5.771098 -0.000000
v -0.588139 5.802525 0.254472
v 0.157805 5.802525 -0.491472
v -0.096667 5.771098 -0.522898
v -0.351138 5.802525 -0.491472
v 0.394805 6.548468 -0.491472
v 0.386434 6.293996 -0.522898
v 0.394805 6.039525 -0.491472
v -0.588139 6.039525 0.491472
v -0.619565 6.293996 0.522898
v -0.588139 6.548468 0.491472
v 0.394805 6.548468 0.491472
v 0.386434 6.293996 0.522898
v 0.394805 6.039525 0.491472
v -0.588139 6.548468 -0.491472
v -0.619565 6.293996 -0.522898
v -0.588139 6.039525 -0.491472
v 0.157805 6.785468 0.491472
v -0.096667 6.816895 0.522898
v -0.351138 6.785468 0.491472
v 0.394805 6.785468 -0.254472
v 0.426231 6.816895 -0.000000
v 0.394805 6.785468 0.254472
v -0.351138 5.802525 0.491472
v -0.096667 5.771098 0.522898
v 0.157805 5.802525 0.491472
v -0.588139 6.785468 0.254472
v -0.619565 6.816895 -0.000000
v -0.588139 6.785468 -0.254472
v -0.351138 6.785468 -0.491472
v -0.096667 6.816895 -0.522898
v 0.157805 6.785468 -0.491472
v 0.441260 5.802525 0.254472
v 0.426231 5.771098 -0.000000
v 0.441260 5.802525 -0.254472
v 0.174538 6.919336 -0.271205
v -0.096667 6.964663 -0.285774
v -0.367872 6.919336 -0.271205
v 0.189107 6.964663 0.000000
v -0.096667 7.014139 -0.000000
v -0.382441 6.964663 -0.000000
v 0.174538 6.919336 0.271205
v -0.096667 6.964663 0.285774
v -0.367872 6.919336 0.271205
v 0.174538 6.022791 0.625340
v 0.189107 6.293996 0.670667
v 0.174538 6.565202 0.625340
v -0.096667 6.008223 0.670667
v -0.096667 6.293996 0.720143
v -0.096667 6.579770 0.670667
v -0.367872 6.022791 0.625340
v -0.382441 6.293996 0.670667
v -0.367872 6.565202 0.625340
v -0.722007 6.022791 0.271205
v -0.767333 6.293996 0.285774
v -0.722007 6.565202 0.271205
v -0.767333 6.008223 -0.000000
v -0.816810 6.293996 -0.000000
v -0.767333 6.579770 -0.000000
v -0.722007 6.022791 -0.271205
v -0.767333 6.293996 -0.285774
v -0.722007 6.565202 -0.271205
v -0.367872 5.668656 -0.271205
v -0.096667 5.623330 -0.285774
v 0.174538 5.668656 -0.271205
v -0.382441 5.623330 0.000000
v -0.096667 5.573853 0.000000
v 0.189107 5.623330 -0.000000
v -0.367872 5.668656 0.271205
v -0.096667 5.623330 0.285774
v 0.174538 5.668656 0.271205
v 0.540140 6.146791 -0.271205
v 0.483177 6.293996 -0.285774
v 0.507170 6.565202 -0.271205
v 0.726520 6.110525 0.000000
v 0.560589 6.293996 -0.000000
v 0.511112 6.579770 -0.000000
v 0.540140 6.146791 0.271205
v 0.483177 6.293996 0.285774
v 0.507170 6.565202 0.271205
v -0.367872 6.022791 -0.625340
v -0.382441 6.293996 -0.670667
v -0.367872 6.565202 -0.625340
v -0.096667 6.008223 -0.670667
v -0.096667 6.293996 -0.720143
v -0.096667 6.579770 -0.670667
v 0.174538 6.022791 -0.625340
v 0.189107 6.293996 -0.670667
v 0.174538 6.565202 -0.625340
vn -0.9997 -0.0000 0.0235
vn 0.6781 0.2997 0.6711
vn -0.8541 0.5089 0.1077
vn -0.5131 0.3106 0.8002
vn 0.9945 0.1049 -0.0000
vn 0.6426 0.0254 -0.7658
vn -0.8958 0.3815 -0.2279
vn -0.6238 -0.2924 0.7248
vn 0.9837 -0.1207 0.1336
vn 0.1150 -0.1547 -0.9812
vn -0.9404 -0.3174 -0.1218
vn -0.9981 -0.0608 -0.0000
vn 0.5938 -0.0433 -0.8035
vn 0.9498 -0.2425 -0.1976
vn -0.4717 0.0330 0.8811
vn 0.9538 -0.2618 0.1472
vn -0.6642 -0.4267 -0.6138
vn -0.9819 -0.1712 -0.0815
vn 0.9941 -0.1081 -0.0000
vn -0.8907 0.4012 -0.2136
vn 0.9858 0.0935 0.1392
vn -0.8529 0.3999 0.3356
vn 0.5499 -0.8260 0.1236
vn 0.9146 0.4043 -0.0000
vn -0.9506 -0.0000 -0.3103
vn -0.9997 -0.0000 -0.0235
vn -0.8878 0.3882 0.2473
vn -0.9404 -0.3174 0.1218
vn 0.9538 -0.2618 -0.1472
vn 0.9858 0.0935 -0.1392
vn -0.8529 0.3999 -0.3356
vn 0.5499 -0.8260 -0.1236
vn 0.6781 0.2997 -0.6711
vn -0.8541 0.5089 -0.1077
vn 0.9837 -0.1207 -0.1336
vn 0.9498 -0.2425 0.1976
vn -0.6642 -0.4267 0.6138
vn -0.9819 -0.1712 0.0815
vn -0.9160 0.3571 0.1828
vn -0.9506 -0.0000 0.3103
vn -0.7196 0.3324 -0.6096
vn -1.0000 -0.0000 -0.0000
vn -0.5291 0.8486 -0.0000
vn 1.0000 -0.0000 -0.0000
vn 0.8250 -0.5651 -0.0000
vn -0.0000 -1.0000 -0.0000
vn 0.8250 0.5651 -0.0000
vn -0.5303 -0.8478 0.0002
vn -0.0074 0.0212 0.9997
vn -0.6536 0.0528 -0.7550
vn 1.0000 -0.0068 -0.0000
vn 0.6629 0.1830 0.7260
vn -0.9977 0.0672 -0.0000
vn -0.5696 0.0865 -0.8174
vn 0.4672 0.0969 0.8788
vn -0.0000 -0.0000 -1.0000
vn -0.9970 -0.0000 0.0772
vn -0.5182 0.8312 0.2016
vn 0.8171 -0.5597 0.1379
vn 0.0580 -0.0000 0.9983
vn 0.8161 0.5590 -0.1469
vn -0.9970 -0.0000 -0.0772
vn -0.5185 -0.8317 -0.1988
vn 0.0593 0.0107 0.9982
vn -0.9993 0.0368 -0.0000
vn -0.6811 0.3146 -0.6612
vn -0.0246 -0.0000 0.9997
vn 0.0016 -0.0047 -1.0000
vn 0.3144 0.9493 -0.0000
vn 0.0016 -0.0047 1.0000
vn -0.0074 0.0212 -0.9997
vn 0.7236 0.6484 0.2365
vn 0.6420 0.0252 0.7663
vn 0.1150 -0.1547 0.9812
vn 0.5936 -0.0441 0.8036
vn 0.8022 0.5971 -0.0000
vn 0.7236 0.6484 -0.2365
vn -0.0246 -0.0000 -0.9997
vn 0.4642 0.0969 -0.8804
vn 0.6629 0.1830 -0.7260
vn 0.8171 0.5597 0.1379
vn -0.4149 -0.0000 0.9099
vn 0.8161 -0.5590 -0.1469
vn -0.0000 -0.0000 1.0000
vn -0.0000 -0.9911 -0.1335
vn 0.0593 0.0107 -0.9982
vn -0.0000 0.9912 0.1321
vn -0.0000 0.0408 0.9992
vn -0.0000 0.0821 -0.9966
vn 0.0010 0.0411 -0.9992
vn 0.0014 -1.0000 -0.0003
vn -0.0000 1.0000 -0.0000
vn 0.6730 0.4593 0.5797
vn 0.1847 0.0664 0.9805
vn -0.0000 -0.1754 -0.9845
vn -0.0000 -0.1908 0.9816
vn 0.0038 0.1483 0.9889
vn -0.5131 0.3106 -0.8002
vn -0.6188 -0.3165 -0.7190
vn -0.4717 0.0330 -0.8811
vn -0.2848 -0.6399 0.7137
vn -0.2848 -0.6399 -0.7137
vn -0.5303 -0.8478 -0.0002
vn -0.5290 0.8486 -0.0000
vn -0.5696 0.0865 0.8174
vn -0.6536 0.0528 0.7550
vn -0.5182 -0.8312 0.2016
vn -0.5185 0.8316 -0.1988
vn -0.6811 0.3146 0.6612
vn -0.7196 0.3324 0.6096
vn -0.0000 0.9911 -0.1335
vn -0.0000 -0.9912 0.1321
vn -0.0000 0.0821 0.9966
vn 0.0014 -1.0000 -0.0000
vn 0.2123 0.9728 -0.0931
vn -0.0000 -0.9061 -0.4231
vn -0.0000 -0.9061 0.4231
vn -0.0000 0.0374 0.9993
vn -0.0000 0.0374 -0.9993
vn -0.0000 0.1495 -0.9888
vn 0.2123 0.9728 0.0931
vn -0.8786 0.3295 0.3457
vn 0.0572 0.2621 -0.9634
vn 0.9988 0.0494 -0.0000
vn 0.1876 0.9814 0.0403
vn -0.4331 -0.8965 0.0932
vn -0.7196 0.6907 0.0720
vn 0.9543 -0.2973 0.0309
vn -0.3458 -0.9377 0.0346
vn -0.9950 -0.0000 0.0995
vn -0.6212 -0.7812 -0.0621
vn 0.1876 0.9814 -0.0403
vn 0.4351 -0.8956 -0.0931
vn -0.7196 0.6907 -0.0720
vn -0.9950 -0.0000 -0.0995
vn -0.0000 0.0172 0.9999
vn -0.4736 0.0441 0.8796
vn -0.0000 -0.0408 -0.9992
vn 0.6284 -0.0530 -0.7760
vn -1.0000 0.0003 -0.0000
vn 0.5872 -0.0731 0.8061
vn 0.9774 -0.0573 -0.2034
vn -0.6289 -0.0528 -0.7757
vn -0.6289 -0.0528 0.7757
vn -0.0000 0.0172 -0.9999
vn -0.0000 -0.0408 0.9992
vn 0.5872 -0.0731 -0.8061
vn 0.6285 -0.0528 0.7760
vn 0.9774 -0.0573 0.2034
vn -0.4736 0.0441 -0.8796
vn 0.1681 0.9708 -0.1713
vn -0.1713 0.9708 -0.1681
vn 0.1681 0.9708 0.1713
vn -0.1713 0.9708 0.1681
vn 0.5149 0.8134 -0.2705
vn 0.1678 0.8367 -0.5213
vn -0.1677 0.8367 -0.5214
vn -0.4446 0.7501 -0.4896
vn -0.5213 0.8367 -0.1678
vn -0.5213 0.8367 0.1678
vn -0.4446 0.7501 0.4896
vn -0.1677 0.8367 0.5214
vn 0.1678 0.8367 0.5213
vn 0.5149 0.8134 0.2705
vn 0.5214 0.8367 0.1677
vn 0.5214 0.8367 -0.1677
vn 0.1713 -0.1681 0.9708
vn 0.1681 0.1713 0.9708
vn -0.1713 -0.1681 0.9708
vn -0.1681 0.1713 0.9708
vn 0.3321 -0.5082 0.7946
vn 0.5222 -0.0876 0.8483
vn 0.5913 0.1637 0.7896
vn 0.4816 0.4816 0.7322
vn 0.1678 0.5213 0.8367
vn -0.1678 0.5213 0.8367
vn -0.4896 0.4446 0.7501
vn -0.5214 0.1677 0.8367
vn -0.5213 -0.1678 0.8367
vn -0.4446 -0.4896 0.7501
vn -0.1677 -0.5214 0.8367
vn 0.1677 -0.5214 0.8367
vn -0.9702 -0.1714 0.1714
vn -0.9713 0.1682 0.1682
vn -0.9702 -0.1714 -0.1714
vn -0.9713 0.1682 -0.1682
vn -0.7844 -0.4386 0.4386
vn -0.8367 -0.1677 0.5213
vn -0.8367 0.1678 0.5214
vn -0.7322 0.4816 0.4816
vn -0.8367 0.5214 0.1678
vn -0.8367 0.5214 -0.1678
vn -0.7322 0.4816 -0.4816
vn -0.8367 0.1678 -0.5214
vn -0.8367 -0.1677 -0.5213
vn -0.7844 -0.4386 -0.4386
vn -0.8367 -0.5213 -0.1677
vn -0.8367 -0.5213 0.1677
vn -0.1681 -0.9708 -0.1713
vn 0.1713 -0.9708 -0.1681
vn -0.1681 -0.9708 0.1713
vn 0.1713 -0.9708 0.1681
vn -0.4896 -0.7501 -0.4446
vn -0.1678 -0.8367 -0.5213
vn 0.1677 -0.8367 -0.5214
vn 0.2926 -0.8071 -0.5128
vn 0.5214 -0.8367 -0.1678
vn 0.5214 -0.8367 0.1678
vn 0.2926 -0.8071 0.5128
vn 0.1677 -0.8367 0.5214
vn -0.1678 -0.8367 0.5213
vn -0.4896 -0.7501 0.4446
vn -0.5214 -0.8367 0.1677
vn -0.5214 -0.8367 -0.1677
vn 0.6838 0.6184 -0.3872
vn 0.9628 -0.0712 -0.2608
vn 0.6838 0.6184 0.3872
vn 0.9628 -0.0712 0.2608
vn 0.8390 -0.2937 -0.4581
vn 0.7561 0.2320 -0.6119
vn 0.9258 0.0162 -0.3777
vn 0.7882 0.4352 -0.4352
vn 0.9410 0.3368 -0.0318
vn 0.9410 0.3368 0.0318
vn 0.7882 0.4352 0.4352
vn 0.9258 0.0162 0.3777
vn 0.7561 0.2320 0.6119
vn 0.8390 -0.2937 0.4581
vn 0.9612 -0.2750 -0.0228
vn 0.9612 -0.2750 0.0228
vn -0.1713 -0.1681 -0.9708
vn -0.1681 0.1713 -0.9708
vn 0.1713 -0.1681 -0.9708
vn 0.1681 0.1713 -0.9708
vn -0.4446 -0.4896 -0.7501
vn -0.5213 -0.1678 -0.8367
vn -0.5214 0.1677 -0.8367
vn -0.4896 0.4446 -0.7501
vn -0.1678 0.5213 -0.8367
vn 0.1678 0.5213 -0.8367
vn 0.4816 0.4816 -0.7322
vn 0.5913 0.1637 -0.7896
vn 0.5222 -0.0876 -0.8483
vn 0.3321 -0.5082 -0.7946
vn 0.1677 -0.5214 -0.8367
vn -0.1677 -0.5214 -0.8367
vn 0.7158 -0.0000 0.6983
vn -0.7213 0.6923 0.0197
vn -0.6298 0.2605 0.7318
vn 0.9771 0.1666 0.1327
vn 0.1143 0.1892 -0.9753
vn -0.8827 0.3921 -0.2590
vn -0.1146 -0.3108 0.9435
vn 0.6431 0.0492 0.7642
vn 0.2116 -0.1450 -0.9665
vn -0.9332 -0.3111 -0.1801
vn -0.9933 -0.0949 -0.0660
vn 0.6427 -0.0199 -0.7659
vn 0.9893 -0.1462 -0.0000
vn -0.5695 0.0919 0.8168
vn 0.9574 -0.2551 0.1352
vn -0.9952 -0.0979 -0.0077
vn -0.8941 -0.2473 -0.3735
vn -0.9235 0.3600 -0.1321
vn -0.9492 0.2379 0.2058
vn 0.0046 -0.8765 0.4814
vn -0.9728 -0.0956 -0.2109
vn -0.8827 0.3921 0.2590
vn -0.9332 -0.3111 0.1801
vn -0.9912 -0.1034 0.0826
vn 0.9574 -0.2551 -0.1352
vn -0.9492 0.2379 -0.2058
vn 0.0046 -0.8765 -0.4814
vn 0.7158 -0.0000 -0.6983
vn -0.7213 0.6923 -0.0197
vn 0.9771 0.1666 -0.1327
vn 0.6431 0.0492 -0.7642
vn -0.9958 -0.0911 -0.0039
vn -0.8941 -0.2473 0.3735
vn -0.9083 0.3961 0.1344
vn -0.9728 -0.0956 0.2109
vn -0.5291 -0.8486 -0.0000
vn -0.7992 0.0168 -0.6008
vn 0.0375 0.0833 0.9958
vn -0.7536 0.0427 -0.6560
vn -0.0454 0.0392 0.9982
vn -0.0000 0.9583 0.2858
vn 0.9941 -0.1082 -0.0000
vn 0.9971 0.0764 -0.0000
vn -0.0167 -0.9578 -0.2869
vn -0.0000 0.0228 0.9997
vn -0.0000 -0.0050 1.0000
vn 0.8022 0.5495 0.2338
vn 0.1144 0.1860 0.9759
vn 0.3923 -0.1222 0.9117
vn 0.6432 -0.0200 0.7654
vn 0.8022 0.5495 -0.2338
vn -0.0000 -0.0050 -1.0000
vn -0.0456 0.0394 -0.9982
vn 0.0375 0.0833 -0.9958
vn 0.9941 0.1082 -0.0000
vn 0.9971 -0.0764 -0.0000
vn -0.0000 0.0228 -0.9997
vn -0.0000 0.0408 -0.9992
vn 0.0572 0.2621 0.9634
vn 0.0815 -0.1678 -0.9825
vn -0.0961 -0.1989 0.9753
vn -0.0000 0.1495 0.9888
vn -0.6298 0.2605 -0.7318
vn -0.2713 -0.3412 -0.9000
vn -0.5695 0.0919 -0.8168
vn -0.4960 -0.5947 0.6327
vn -0.4960 -0.5947 -0.6327
vn -0.7536 0.0427 0.6560
vn -0.7992 0.0168 0.6008
vn -0.0000 -0.9583 0.2858
vn -0.0167 0.9578 -0.2869
vn -0.0000 -1.0000 0.0003
vn 0.1867 0.9765 -0.1073
vn -0.3677 -0.9263 0.0826
vn -0.3677 -0.9263 -0.0826
vn 0.0010 0.0381 0.9993
vn 0.1867 0.9765 0.1073
vn 0.1847 0.0664 -0.9805
vn 0.6730 0.4593 -0.5797
vn -0.8786 0.3295 -0.3457
vn -0.5262 0.8440 0.1034
vn -0.5303 -0.8478 -0.0000
vn -0.5282 -0.8445 -0.0878
vn -0.5262 0.8440 -0.1034
vn -0.5716 0.0243 0.8202
vn 0.0010 -0.0411 -0.9992
vn 0.4663 -0.0260 -0.8843
vn 0.6732 -0.0546 0.7374
vn 1.0000 -0.0080 -0.0000
vn -0.6534 -0.0568 -0.7548
vn -0.6534 -0.0568 0.7548
vn 0.6732 -0.0546 -0.7374
vn 0.4692 -0.0262 0.8827
vn -0.5716 0.0243 -0.8202
vn 0.1713 0.9708 -0.1681
vn -0.1681 0.9708 -0.1713
vn 0.1713 0.9708 0.1681
vn -0.1681 0.9708 0.1713
vn 0.3336 0.7941 -0.5080
vn 0.1677 0.8367 -0.5214
vn -0.1678 0.8367 -0.5213
vn -0.4896 0.7501 -0.4446
vn -0.5214 0.8367 -0.1677
vn -0.5214 0.8367 0.1677
vn -0.4896 0.7501 0.4446
vn -0.1678 0.8367 0.5213
vn 0.1677 0.8367 0.5214
vn 0.3336 0.7941 0.5080
vn 0.5213 0.8367 0.1678
vn 0.5213 0.8367 -0.1678
vn 0.1681 -0.1713 0.9708
vn 0.1713 0.1681 0.9708
vn -0.1681 -0.1713 0.9708
vn -0.1713 0.1681 0.9708
vn 0.5077 -0.3357 0.7934
vn 0.5913 -0.1637 0.7896
vn 0.5222 0.0876 0.8483
vn 0.3097 0.3097 0.8990
vn 0.1677 0.5214 0.8367
vn -0.1677 0.5214 0.8367
vn -0.4446 0.4896 0.7501
vn -0.5213 0.1678 0.8367
vn -0.5214 -0.1677 0.8367
vn -0.4896 -0.4446 0.7501
vn -0.1678 -0.5213 0.8367
vn 0.1678 -0.5213 0.8367
vn -0.9713 -0.1682 0.1682
vn -0.9702 0.1714 0.1714
vn -0.9713 -0.1682 -0.1682
vn -0.9702 0.1714 -0.1714
vn -0.7322 -0.4816 0.4816
vn -0.8367 -0.1678 0.5214
vn -0.8367 0.1677 0.5213
vn -0.7844 0.4386 0.4386
vn -0.8367 0.5213 0.1677
vn -0.8367 0.5213 -0.1677
vn -0.7844 0.4386 -0.4386
vn -0.8367 0.1677 -0.5213
vn -0.8367 -0.1678 -0.5214
vn -0.7322 -0.4816 -0.4816
vn -0.8367 -0.5214 -0.1678
vn -0.8367 -0.5214 0.1678
vn -0.1713 -0.9708 -0.1681
vn 0.1681 -0.9708 -0.1713
vn -0.1713 -0.9708 0.1681
vn 0.1681 -0.9708 0.1713
vn -0.4446 -0.7501 -0.4896
vn -0.1677 -0.8367 -0.5214
vn 0.1678 -0.8367 -0.5213
vn 0.4360 -0.8233 -0.3635
vn 0.4512 -0.8886 -0.0831
vn 0.4512 -0.8886 0.0831
vn 0.4360 -0.8233 0.3635
vn 0.1678 -0.8367 0.5213
vn -0.1677 -0.8367 0.5214
vn -0.4446 -0.7501 0.4896
vn -0.5213 -0.8367 0.1678
vn -0.5213 -0.8367 -0.1678
vn 0.9117 0.3283 -0.2470
vn 0.9851 0.1705 -0.0235
vn 0.9117 0.3283 0.2470
vn 0.9851 0.1705 0.0235
vn 0.8590 -0.2679 -0.4363
vn 0.9258 -0.0162 -0.3777
vn 0.8911 -0.0546 -0.4504
vn 0.9959 -0.0640 0.0640
vn 0.8735 0.4581 -0.1645
vn 0.8735 0.4581 0.1645
vn 0.9959 -0.0640 -0.0640
vn 0.8911 -0.0546 0.4504
vn 0.9258 -0.0162 0.3777
vn 0.8590 -0.2679 0.4363
vn 0.6413 -0.5673 0.5166
vn 0.6413 -0.5673 -0.5166
vn -0.1681 -0.1713 -0.9708
vn -0.1713 0.1681 -0.9708
vn 0.1681 -0.1713 -0.9708
vn 0.1713 0.1681 -0.9708
vn -0.4896 -0.4446 -0.7501
vn -0.5214 -0.1677 -0.8367
vn -0.5213 0.1678 -0.8367
vn -0.4446 0.4896 -0.7501
vn -0.1677 0.5214 -0.8367
vn 0.1677 0.5214 -0.8367
vn 0.3097 0.3097 -0.8990
vn 0.5222 0.0876 -0.8483
vn 0.5913 -0.1637 -0.7896
vn 0.5077 -0.3357 -0.7934
vn 0.1678 -0.5213 -0.8367
vn -0.1678 -0.5213 -0.8367
vt 0.625000 0.187500
vt 0.562500 0.250000
vt 0.562500 0.187500
vt 0.625000 0.687500
vt 0.562500 0.750000
vt 0.562500 0.687500
vt 0.875000 0.687500
vt 0.812500 0.750000
vt 0.812500 0.687500
vt 0.437500 0.937500
vt 0.500000 1.000000
vt 0.437500 1.000000
vt 0.500000 0.687500
vt 0.437500 0.750000
vt 0.437500 0.687500
vt 0.437500 0.437500
vt 0.500000 0.500000
vt 0.437500 0.500000
vt 0.500000 0.187500
vt 0.437500 0.250000
vt 0.437500 0.187500
vt 0.562500 0.937500
vt 0.500000 0.937500
vt 0.500000 0.750000
vt 0.500000 0.437500
vt 0.562500 0.500000
vt 0.500000 0.250000
vt 0.375000 0.187500
vt 0.375000 0.250000
vt 0.375000 0.500000
vt 0.375000 0.437500
vt 0.375000 0.750000
vt 0.375000 0.687500
vt 0.375000 1.000000
vt 0.375000 0.937500
vt 0.375000 0.562500
vt 0.437500 0.625000
vt 0.375000 0.625000
vt 0.375000 0.062500
vt 0.437500 0.125000
vt 0.375000 0.125000
vt 0.500000 0.062500
vt 0.562500 0.125000
vt 0.500000 0.125000
vt 0.500000 0.562500
vt 0.562500 0.625000
vt 0.500000 0.625000
vt 0.437500 0.062500
vt 0.437500 0.562500
vt 0.812500 0.562500
vt 0.875000 0.625000
vt 0.812500 0.625000
vt 0.312500 0.562500
vt 0.312500 0.625000
vt 0.625000 0.562500
vt 0.562500 0.562500
vt 0.625000 0.062500
vt 0.562500 0.062500
vt 0.562500 0.000000
vt 0.437500 0.000000
vt 0.500000 0.000000
vt 0.375000 0.000000
vt 0.312500 0.687500
vt 0.812500 0.500000
vt 0.875000 0.562500
vt 0.187500 0.687500
vt 0.125000 0.687500
vt 0.625000 0.250000
vt 0.625000 0.312500
vt 0.625000 0.500000
vt 0.562500 0.437500
vt 0.312500 0.750000
vt 0.625000 0.750000
vt 0.625000 0.812500
vt 0.562500 1.000000
vt 0.625000 1.000000
vt 0.125000 0.750000
vt 0.187500 0.500000
vt 0.125000 0.500000
vt 0.125000 0.562500
vt 0.312500 0.500000
vt 0.687500 0.687500
vt 0.437500 0.812500
vt 0.500000 0.812500
vt 0.375000 0.812500
vt 0.687500 0.562500
vt 0.625000 0.625000
vt 0.625000 0.437500
vt 0.562500 0.812500
vt 0.187500 0.750000
vt 0.187500 0.562500
vt 0.562500 0.312500
vt 0.687500 0.625000
vt 0.500000 0.312500
vt 0.437500 0.312500
vt 0.375000 0.312500
vt 0.125000 0.625000
vt 0.625000 0.937500
vt 0.687500 0.500000
vt 0.187500 0.625000
vt 0.687500 0.750000
vt 0.000000 0.000000
vt 0.875000 0.750000
vt 0.625000 0.125000
vt 0.625000 0.000000
vt 0.875000 0.500000
s 0
usemtl 
f 41/1/1 14/2/1 44/3/1
f 32/4/2 16/5/2 34/6/2
f 36/7/3 124/8/3 145/9/3
f 127/10/4 9/11/4 20/12/4
f 33/13/5 19/14/5 35/15/5
f 95/16/6 11/17/6 18/18/6
f 43/19/7 17/20/7 45/21/7
f 126/22/8 9/11/8 125/23/8
f 34/6/9 12/24/9 33/13/9
f 93/25/10 15/26/10 11/17/10
f 44/3/11 10/27/11 43/19/11
f 46/28/12 17/20/12 3/29/12
f 95/16/13 7/30/13 107/31/13
f 35/15/14 5/32/14 37/33/14
f 127/10/15 1/34/15 140/35/15
f 42/36/16 30/37/16 23/38/16
f 31/39/17 29/40/17 21/41/17
f 38/42/18 28/43/18 26/44/18
f 48/45/19 27/46/19 25/47/19
f 38/42/20 29/40/20 40/48/20
f 48/45/21 30/37/21 50/49/21
f 146/50/22 22/51/22 144/52/22
f 114/53/23 23/38/23 112/54/23
f 47/55/24 27/46/24 49/56/24
f 36/57/25 28/43/25 39/58/25
f 13/59/26 36/57/26 39/58/26
f 20/60/27 38/42/27 40/48/27
f 9/61/28 39/58/28 38/42/28
f 20/60/12 31/39/12 1/62/12
f 30/37/29 37/33/29 23/38/29
f 27/46/19 33/13/19 25/47/19
f 30/37/30 33/13/30 35/15/30
f 22/51/31 145/9/31 144/52/31
f 23/38/32 113/63/32 112/54/32
f 27/46/24 32/4/24 34/6/24
f 15/26/33 47/55/33 49/56/33
f 139/64/34 41/65/34 146/50/34
f 18/18/5 48/45/5 50/49/5
f 11/17/35 49/56/35 48/45/35
f 7/30/36 50/49/36 42/36/36
f 29/40/37 46/28/37 21/41/37
f 28/43/38 43/19/38 26/44/38
f 26/44/39 45/21/39 29/40/39
f 28/43/40 41/1/40 44/3/40
f 133/66/41 75/67/41 59/67/41
f 52/68/42 170/2/42 169/68/42
f 131/69/43 169/68/43 176/69/43
f 54/26/44 171/70/44 172/26/44
f 99/71/45 172/26/45 174/71/45
f 76/33/46 105/72/46 121/63/46
f 56/73/44 162/5/44 161/73/44
f 100/74/47 161/73/47 166/74/47
f 58/75/42 163/76/42 164/75/42
f 132/22/48 164/75/48 168/22/48
f 77/32/49 83/32/49 61/32/49
f 133/66/50 178/67/50 184/66/50
f 179/32/51 60/33/51 177/33/51
f 182/72/52 61/32/52 179/32/52
f 59/67/53 180/77/53 178/67/53
f 84/32/44 86/33/44 83/32/44
f 134/78/54 186/79/54 192/78/54
f 65/36/51 185/30/51 187/36/51
f 190/53/55 65/36/55 187/36/55
f 186/79/53 66/80/53 188/80/53
f 103/71/56 69/70/56 70/26/56
f 52/68/57 67/2/57 51/2/57
f 135/69/58 52/68/58 131/69/58
f 70/26/44 53/70/44 54/26/44
f 103/71/59 54/26/59 99/71/59
f 136/22/60 73/76/60 74/75/60
f 72/73/44 55/5/44 56/73/44
f 104/74/61 56/73/61 100/74/61
f 74/75/62 57/76/62 58/75/62
f 136/22/63 58/75/63 132/22/63
f 105/72/64 61/32/64 101/72/64
f 59/67/65 78/77/65 62/77/65
f 80/30/46 106/53/46 122/81/46
f 134/78/66 79/79/66 63/79/66
f 106/53/67 65/36/67 102/53/67
f 79/79/65 66/80/65 63/79/65
f 85/33/46 77/32/46 76/33/46
f 86/33/68 76/33/68 60/33/68
f 61/32/69 86/33/69 60/33/69
f 88/36/44 90/30/44 87/36/44
f 81/36/70 87/36/70 65/36/70
f 89/30/46 81/36/46 80/30/46
f 90/30/71 80/30/71 64/30/71
f 87/36/69 64/30/69 65/36/69
f 97/82/72 6/73/72 32/4/72
f 12/24/73 111/83/73 19/14/73
f 16/5/74 109/84/74 12/24/74
f 5/32/75 111/83/75 92/85/75
f 98/86/76 24/87/76 47/55/76
f 24/87/76 97/82/76 32/4/76
f 8/70/77 98/86/77 47/55/77
f 60/33/78 121/63/78 117/63/78
f 53/70/47 173/88/47 171/70/47
f 55/5/45 165/89/45 162/5/45
f 60/33/79 181/63/79 177/33/79
f 64/30/80 189/81/80 185/30/80
f 53/70/81 119/88/81 115/88/81
f 72/73/82 120/89/82 71/5/82
f 55/5/83 120/89/83 116/89/83
f 118/81/56 138/78/56 134/78/56
f 153/90/84 101/72/84 149/90/84
f 120/89/85 132/22/85 116/89/85
f 64/30/86 122/81/86 118/81/86
f 104/74/84 136/22/84 120/89/84
f 119/88/87 131/69/87 115/88/87
f 150/91/88 190/53/88 191/91/88
f 118/81/89 192/78/89 189/81/89
f 117/63/90 184/66/90 181/63/90
f 121/63/46 153/90/46 137/66/46
f 147/92/91 174/71/91 175/92/91
f 115/88/92 176/69/92 173/88/92
f 97/82/93 156/93/93 158/82/93
f 145/9/94 158/82/94 157/9/94
f 141/94/95 94/71/95 93/25/95
f 110/89/96 125/23/96 109/84/96
f 109/84/97 127/10/97 111/83/97
f 10/27/98 143/95/98 17/20/98
f 10/27/99 142/92/99 141/94/99
f 3/29/100 143/95/100 123/96/100
f 130/91/101 21/97/101 46/80/101
f 21/97/102 129/66/102 31/67/102
f 170/2/103 147/92/103 175/92/103
f 137/66/46 78/77/46 75/67/46
f 57/76/104 167/98/104 163/76/104
f 180/77/105 149/90/105 183/90/105
f 188/80/106 150/91/106 191/91/106
f 68/68/56 151/92/56 67/2/56
f 51/2/107 151/92/107 147/92/107
f 57/76/108 152/98/108 148/98/108
f 78/77/109 149/90/109 62/77/109
f 138/78/46 82/80/46 79/79/46
f 82/80/110 150/91/110 66/80/110
f 122/81/46 154/91/46 138/78/46
f 148/98/111 104/74/111 100/74/111
f 147/92/112 103/71/112 99/71/112
f 135/69/56 103/71/56 151/92/56
f 149/90/113 182/72/113 183/90/113
f 116/89/114 168/22/114 165/89/114
f 148/98/92 166/74/92 167/98/92
f 121/63/56 133/66/56 117/63/56
f 91/99/115 146/50/115 98/86/115
f 128/100/116 113/63/116 129/66/116
f 114/53/117 128/100/117 130/91/117
f 92/85/118 127/10/118 140/35/118
f 143/95/119 107/31/119 123/96/119
f 143/95/120 93/25/120 95/16/120
f 145/9/121 108/101/121 97/82/121
f 154/91/84 102/53/84 150/91/84
f 144/52/122 159/50/122 146/50/122
f 146/50/123 160/86/123 98/86/123
f 98/86/124 156/93/124 96/93/124
f 144/52/42 157/9/42 155/52/42
f 167/98/125 108/74/125 124/98/125
f 165/89/126 126/22/126 110/89/126
f 163/76/127 124/98/127 2/76/127
f 16/5/128 165/89/128 110/89/128
f 126/22/129 164/75/129 13/75/129
f 164/75/130 2/76/130 13/75/130
f 166/74/47 6/73/47 108/74/47
f 161/73/44 16/5/44 6/73/44
f 170/2/131 142/92/131 14/2/131
f 91/88/132 176/69/132 139/69/132
f 175/92/133 94/71/133 142/92/133
f 171/70/47 91/88/47 8/70/47
f 174/71/45 15/26/45 94/71/45
f 172/26/44 8/70/44 15/26/44
f 139/69/134 169/68/134 4/68/134
f 169/68/135 14/2/135 4/68/135
f 140/90/136 182/72/136 92/72/136
f 1/77/137 183/90/137 140/90/137
f 113/63/138 184/66/138 129/66/138
f 37/33/139 181/63/139 113/63/139
f 178/67/140 1/77/140 31/67/140
f 92/72/141 179/32/141 5/32/141
f 179/32/142 37/33/142 5/32/142
f 184/66/143 31/67/143 129/66/143
f 46/80/144 191/91/144 130/91/144
f 189/81/145 123/78/145 107/81/145
f 191/91/146 114/53/146 130/91/146
f 185/30/147 107/81/147 7/30/147
f 3/79/140 188/80/140 46/80/140
f 190/53/148 42/36/148 114/53/148
f 42/36/149 185/30/149 7/30/149
f 192/78/150 3/79/150 123/78/150
f 41/1/1 4/68/1 14/2/1
f 32/4/247 6/73/247 16/5/247
f 36/7/248 2/103/248 124/8/248
f 127/10/249 125/23/249 9/11/249
f 33/13/250 12/24/250 19/14/250
f 95/16/251 93/25/251 11/17/251
f 43/19/252 10/27/252 17/20/252
f 126/22/253 13/75/253 9/11/253
f 34/6/254 16/5/254 12/24/254
f 93/25/255 94/71/255 15/26/255
f 44/3/256 14/2/256 10/27/256
f 46/28/257 45/21/257 17/20/257
f 95/16/258 18/18/258 7/30/258
f 35/15/259 19/14/259 5/32/259
f 127/10/260 20/12/260 1/34/260
f 42/36/261 50/49/261 30/37/261
f 31/39/262 40/48/262 29/40/262
f 38/42/263 39/58/263 28/43/263
f 48/45/19 49/56/19 27/46/19
f 38/42/264 26/44/264 29/40/264
f 48/45/44 25/47/44 30/37/44
f 146/50/265 41/65/265 22/51/265
f 114/53/266 42/36/266 23/38/266
f 47/55/24 24/87/24 27/46/24
f 36/57/267 22/104/267 28/43/267
f 13/59/26 2/105/26 36/57/26
f 20/60/268 9/61/268 38/42/268
f 9/61/269 13/59/269 39/58/269
f 20/60/270 40/48/270 31/39/270
f 30/37/271 35/15/271 37/33/271
f 27/46/19 34/6/19 33/13/19
f 30/37/44 25/47/44 33/13/44
f 22/51/272 36/7/272 145/9/272
f 23/38/273 37/33/273 113/63/273
f 27/46/24 24/87/24 32/4/24
f 15/26/274 8/70/274 47/55/274
f 139/64/275 4/106/275 41/65/275
f 18/18/276 11/17/276 48/45/276
f 11/17/277 15/26/277 49/56/277
f 7/30/259 18/18/259 50/49/259
f 29/40/278 45/21/278 46/28/278
f 28/43/279 44/3/279 43/19/279
f 26/44/280 43/19/280 45/21/280
f 28/43/281 22/104/281 41/1/281
f 133/66/56 137/66/56 75/67/56
f 52/68/42 51/2/42 170/2/42
f 131/69/104 52/68/104 169/68/104
f 54/26/44 53/70/44 171/70/44
f 99/71/45 54/26/45 172/26/45
f 76/33/46 77/32/46 105/72/46
f 56/73/44 55/5/44 162/5/44
f 100/74/47 56/73/47 161/73/47
f 58/75/42 57/76/42 163/76/42
f 132/22/282 58/75/282 164/75/282
f 77/32/84 84/32/84 83/32/84
f 133/66/283 59/67/283 178/67/283
f 179/32/51 61/32/51 60/33/51
f 182/72/284 101/72/284 61/32/284
f 59/67/53 62/77/53 180/77/53
f 84/32/44 85/33/44 86/33/44
f 134/78/285 63/79/285 186/79/285
f 65/36/51 64/30/51 185/30/51
f 190/53/286 102/53/286 65/36/286
f 186/79/53 63/79/53 66/80/53
f 103/71/56 119/88/56 69/70/56
f 52/68/57 68/68/57 67/2/57
f 135/69/287 68/68/287 52/68/287
f 70/26/44 69/70/44 53/70/44
f 103/71/288 70/26/288 54/26/288
f 136/22/60 152/98/60 73/76/60
f 72/73/44 71/5/44 55/5/44
f 104/74/289 72/73/289 56/73/289
f 74/75/62 73/76/62 57/76/62
f 136/22/290 74/75/290 58/75/290
f 105/72/291 77/32/291 61/32/291
f 59/67/65 75/67/65 78/77/65
f 80/30/46 81/36/46 106/53/46
f 134/78/56 138/78/56 79/79/56
f 106/53/292 81/36/292 65/36/292
f 79/79/65 82/80/65 66/80/65
f 85/33/46 84/32/46 77/32/46
f 86/33/56 85/33/56 76/33/56
f 61/32/69 83/32/69 86/33/69
f 88/36/44 89/30/44 90/30/44
f 81/36/84 88/36/84 87/36/84
f 89/30/46 88/36/46 81/36/46
f 90/30/56 89/30/56 80/30/56
f 87/36/69 90/30/69 64/30/69
f 97/82/293 108/101/293 6/73/293
f 12/24/294 109/84/294 111/83/294
f 16/5/295 110/89/295 109/84/295
f 5/32/296 19/14/296 111/83/296
f 98/86/76 96/93/76 24/87/76
f 24/87/76 96/93/76 97/82/76
f 8/70/297 91/99/297 98/86/297
f 60/33/298 76/33/298 121/63/298
f 53/70/47 115/88/47 173/88/47
f 55/5/45 116/89/45 165/89/45
f 60/33/299 117/63/299 181/63/299
f 64/30/300 118/81/300 189/81/300
f 53/70/301 69/70/301 119/88/301
f 72/73/82 104/74/82 120/89/82
f 55/5/302 71/5/302 120/89/302
f 118/81/56 122/81/56 138/78/56
f 153/90/84 105/72/84 101/72/84
f 120/89/85 136/22/85 132/22/85
f 64/30/303 80/30/303 122/81/303
f 104/74/84 152/98/84 136/22/84
f 119/88/87 135/69/87 131/69/87
f 150/91/88 102/53/88 190/53/88
f 118/81/89 134/78/89 192/78/89
f 117/63/304 133/66/304 184/66/304
f 121/63/46 105/72/46 153/90/46
f 147/92/46 99/71/46 174/71/46
f 115/88/92 131/69/92 176/69/92
f 97/82/124 96/93/124 156/93/124
f 145/9/305 97/82/305 158/82/305
f 141/94/306 142/92/306 94/71/306
f 110/89/307 126/22/307 125/23/307
f 109/84/308 125/23/308 127/10/308
f 10/27/309 141/94/309 143/95/309
f 10/27/310 14/2/310 142/92/310
f 3/29/311 17/20/311 143/95/311
f 130/91/312 128/100/312 21/97/312
f 21/97/313 128/100/313 129/66/313
f 170/2/282 51/2/282 147/92/282
f 137/66/46 153/90/46 78/77/46
f 57/76/43 148/98/43 167/98/43
f 180/77/314 62/77/314 149/90/314
f 188/80/315 66/80/315 150/91/315
f 68/68/56 135/69/56 151/92/56
f 51/2/316 67/2/316 151/92/316
f 57/76/317 73/76/317 152/98/317
f 78/77/84 153/90/84 149/90/84
f 138/78/46 154/91/46 82/80/46
f 82/80/84 154/91/84 150/91/84
f 122/81/46 106/53/46 154/91/46
f 148/98/111 152/98/111 104/74/111
f 147/92/112 151/92/112 103/71/112
f 135/69/56 119/88/56 103/71/56
f 149/90/113 101/72/113 182/72/113
f 116/89/318 132/22/318 168/22/318
f 148/98/92 100/74/92 166/74/92
f 121/63/56 137/66/56 133/66/56
f 91/99/319 139/64/319 146/50/319
f 128/100/320 112/54/320 113/63/320
f 114/53/321 112/54/321 128/100/321
f 92/85/322 111/83/322 127/10/322
f 143/95/119 95/16/119 107/31/119
f 143/95/120 141/94/120 93/25/120
f 145/9/323 124/8/323 108/101/323
f 154/91/84 106/53/84 102/53/84
f 144/52/42 155/52/42 159/50/42
f 146/50/324 159/50/324 160/86/324
f 98/86/325 160/86/325 156/93/325
f 144/52/326 145/9/326 157/9/326
f 167/98/92 166/74/92 108/74/92
f 165/89/114 168/22/114 126/22/114
f 163/76/327 167/98/327 124/98/327
f 16/5/45 162/5/45 165/89/45
f 126/22/328 168/22/328 164/75/328
f 164/75/130 163/76/130 2/76/130
f 166/74/47 161/73/47 6/73/47
f 161/73/44 162/5/44 16/5/44
f 170/2/329 175/92/329 142/92/329
f 91/88/92 173/88/92 176/69/92
f 175/92/114 174/71/114 94/71/114
f 171/70/47 173/88/47 91/88/47
f 174/71/45 172/26/45 15/26/45
f 172/26/44 171/70/44 8/70/44
f 139/69/330 176/69/330 169/68/330
f 169/68/135 170/2/135 14/2/135
f 140/90/136 183/90/136 182/72/136
f 1/77/331 180/77/331 183/90/331
f 113/63/332 181/63/332 184/66/332
f 37/33/333 177/33/333 181/63/333
f 178/67/140 180/77/140 1/77/140
f 92/72/334 182/72/334 179/32/334
f 179/32/335 177/33/335 37/33/335
f 184/66/336 178/67/336 31/67/336
f 46/80/337 188/80/337 191/91/337
f 189/81/145 192/78/145 123/78/145
f 191/91/146 190/53/146 114/53/146
f 185/30/338 189/81/338 107/81/338
f 3/79/140 186/79/140 188/80/140
f 190/53/339 187/36/339 42/36/339
f 42/36/335 187/36/335 185/30/335
f 192/78/340 186/79/340 3/79/340
usemtl Material
f 237/102/151 241/102/151 240/102/151
f 239/102/152 241/102/152 238/102/152
f 241/102/153 243/102/153 240/102/153
f 241/102/154 245/102/154 244/102/154
f 193/102/155 237/102/155 222/102/155
f 233/102/156 238/102/156 237/102/156
f 231/102/157 238/102/157 232/102/157
f 197/102/158 239/102/158 231/102/158
f 230/102/159 242/102/159 239/102/159
f 242/102/160 228/102/160 245/102/160
f 245/102/161 199/102/161 221/102/161
f 244/102/162 221/102/162 220/102/162
f 244/102/163 219/102/163 243/102/163
f 243/102/164 195/102/164 224/102/164
f 240/102/165 224/102/165 223/102/165
f 222/102/166 240/102/166 223/102/166
f 246/102/167 250/102/167 249/102/167
f 248/102/168 250/102/168 247/102/168
f 250/102/169 252/102/169 249/102/169
f 250/102/170 254/102/170 253/102/170
f 196/102/171 246/102/171 227/102/171
f 214/102/172 246/102/172 215/102/172
f 214/102/173 248/102/173 247/102/173
f 213/102/174 219/102/174 248/102/174
f 219/102/175 251/102/175 248/102/175
f 251/102/176 221/102/176 254/102/176
f 254/102/177 199/102/177 212/102/177
f 253/102/178 212/102/178 211/102/178
f 253/102/179 210/102/179 252/102/179
f 252/102/180 200/102/180 225/102/180
f 249/102/181 225/102/181 226/102/181
f 227/102/182 249/102/182 226/102/182
f 256/102/183 258/102/183 255/102/183
f 256/102/184 260/102/184 259/102/184
f 258/102/185 262/102/185 261/102/185
f 260/102/186 262/102/186 259/102/186
f 210/102/187 203/102/187 200/102/187
f 211/102/188 255/102/188 210/102/188
f 211/102/189 257/102/189 256/102/189
f 212/102/190 228/102/190 257/102/190
f 257/102/191 229/102/191 260/102/191
f 229/102/192 263/102/192 260/102/192
f 230/102/193 216/102/193 263/102/193
f 263/102/194 217/102/194 262/102/194
f 261/102/195 217/102/195 218/102/195
f 201/102/196 218/102/196 198/102/196
f 202/102/197 261/102/197 201/102/197
f 255/102/198 202/102/198 203/102/198
f 264/102/199 268/102/199 267/102/199
f 266/102/200 268/102/200 265/102/200
f 268/102/201 270/102/201 267/102/201
f 268/102/202 272/102/202 271/102/202
f 198/102/203 264/102/203 201/102/203
f 206/102/204 265/102/204 264/102/204
f 204/102/205 265/102/205 205/102/205
f 194/102/206 266/102/206 204/102/206
f 266/102/207 235/102/207 269/102/207
f 235/102/208 272/102/208 269/102/208
f 272/102/209 196/102/209 227/102/209
f 271/102/210 227/102/210 226/102/210
f 271/102/211 225/102/211 270/102/211
f 270/102/212 200/102/212 203/102/212
f 267/102/213 203/102/213 202/102/213
f 201/102/214 267/102/214 202/102/214
f 273/102/215 277/102/215 276/102/215
f 275/102/216 277/102/216 274/102/216
f 277/102/217 279/102/217 276/102/217
f 277/102/218 281/102/218 280/102/218
f 209/102/219 236/102/219 194/102/219
f 209/102/220 274/102/220 273/102/220
f 207/102/221 274/102/221 208/102/221
f 207/102/222 222/102/222 275/102/222
f 275/102/223 223/102/223 278/102/223
f 223/102/224 281/102/224 278/102/224
f 224/102/225 213/102/225 281/102/225
f 280/102/226 213/102/226 214/102/226
f 280/102/227 215/102/227 279/102/227
f 234/102/228 215/102/228 196/102/228
f 235/102/229 279/102/229 234/102/229
f 273/102/230 235/102/230 236/102/230
f 282/102/231 286/102/231 285/102/231
f 284/102/232 286/102/232 283/102/232
f 286/102/233 288/102/233 285/102/233
f 286/102/234 290/102/234 289/102/234
f 198/102/235 282/102/235 206/102/235
f 218/102/236 283/102/236 282/102/236
f 216/102/237 283/102/237 217/102/237
f 197/102/238 284/102/238 216/102/238
f 231/102/239 287/102/239 284/102/239
f 287/102/240 233/102/240 290/102/240
f 233/102/241 207/102/241 290/102/241
f 290/102/242 208/102/242 289/102/242
f 288/102/243 208/102/243 209/102/243
f 288/102/244 194/102/244 204/102/244
f 285/102/245 204/102/245 205/102/245
f 206/102/246 285/102/246 205/102/246
f 237/102/341 238/102/341 241/102/341
f 239/102/342 242/102/342 241/102/342
f 241/102/343 244/102/343 243/102/343
f 241/102/344 242/102/344 245/102/344
f 193/102/345 233/102/345 237/102/345
f 233/102/346 232/102/346 238/102/346
f 231/102/347 239/102/347 238/102/347
f 197/102/348 230/102/348 239/102/348
f 230/102/349 229/102/349 242/102/349
f 242/102/350 229/102/350 228/102/350
f 245/102/351 228/102/351 199/102/351
f 244/102/352 245/102/352 221/102/352
f 244/102/353 220/102/353 219/102/353
f 243/102/354 219/102/354 195/102/354
f 240/102/355 243/102/355 224/102/355
f 222/102/356 237/102/356 240/102/356
f 246/102/357 247/102/357 250/102/357
f 248/102/358 251/102/358 250/102/358
f 250/102/359 253/102/359 252/102/359
f 250/102/360 251/102/360 254/102/360
f 196/102/361 215/102/361 246/102/361
f 214/102/362 247/102/362 246/102/362
f 214/102/363 213/102/363 248/102/363
f 213/102/364 195/102/364 219/102/364
f 219/102/365 220/102/365 251/102/365
f 251/102/366 220/102/366 221/102/366
f 254/102/367 221/102/367 199/102/367
f 253/102/368 254/102/368 212/102/368
f 253/102/369 211/102/369 210/102/369
f 252/102/370 210/102/370 200/102/370
f 249/102/371 252/102/371 225/102/371
f 227/102/372 246/102/372 249/102/372
f 256/102/373 259/102/373 258/102/373
f 256/102/374 257/102/374 260/102/374
f 258/102/375 259/102/375 262/102/375
f 260/102/376 263/102/376 262/102/376
f 210/102/377 255/102/377 203/102/377
f 211/102/378 256/102/378 255/102/378
f 211/102/379 212/102/379 257/102/379
f 212/102/380 199/102/380 228/102/380
f 257/102/381 228/102/381 229/102/381
f 229/102/382 230/102/382 263/102/382
f 230/102/383 197/102/383 216/102/383
f 263/102/384 216/102/384 217/102/384
f 261/102/385 262/102/385 217/102/385
f 201/102/386 261/102/386 218/102/386
f 202/102/387 258/102/387 261/102/387
f 255/102/388 258/102/388 202/102/388
f 264/102/389 265/102/389 268/102/389
f 266/102/390 269/102/390 268/102/390
f 268/102/391 271/102/391 270/102/391
f 268/102/392 269/102/392 272/102/392
f 198/102/393 206/102/393 264/102/393
f 206/102/394 205/102/394 265/102/394
f 204/102/395 266/102/395 265/102/395
f 194/102/396 236/102/396 266/102/396
f 266/102/397 236/102/397 235/102/397
f 235/102/398 234/102/398 272/102/398
f 272/102/399 234/102/399 196/102/399
f 271/102/400 272/102/400 227/102/400
f 271/102/401 226/102/401 225/102/401
f 270/102/402 225/102/402 200/102/402
f 267/102/403 270/102/403 203/102/403
f 201/102/404 264/102/404 267/102/404
f 273/102/405 274/102/405 277/102/405
f 275/102/406 278/102/406 277/102/406
f 277/102/407 280/102/407 279/102/407
f 277/102/408 278/102/408 281/102/408
f 209/102/409 273/102/409 236/102/409
f 209/102/410 208/102/410 274/102/410
f 207/102/411 275/102/411 274/102/411
f 207/102/412 193/102/412 222/102/412
f 275/102/413 222/102/413 223/102/413
f 223/102/414 224/102/414 281/102/414
f 224/102/415 195/102/415 213/102/415
f 280/102/416 281/102/416 213/102/416
f 280/102/417 214/102/417 215/102/417
f 234/102/418 279/102/418 215/102/418
f 235/102/419 276/102/419 279/102/419
f 273/102/420 276/102/420 235/102/420
f 282/102/421 283/102/421 286/102/421
f 284/102/422 287/102/422 286/102/422
f 286/102/423 289/102/423 288/102/423
f 286/102/424 287/102/424 290/102/424
f 198/102/425 218/102/425 282/102/425
f 218/102/426 217/102/426 283/102/426
f 216/102/427 284/102/427 283/102/427
f 197/102/428 231/102/428 284/102/428
f 231/102/429 232/102/429 287/102/429
f 287/102/430 232/102/430 233/102/430
f 233/102/431 193/102/431 207/102/431
f 290/102/432 207/102/432 208/102/432
f 288/102/433 289/102/433 208/102/433
f 288/102/434 209/102/434 194/102/434
f 285/102/435 288/102/435 204/102/435
f 206/102/436 282/102/436 285/102/436
