# Blender 4.4.1
# www.blender.org
mtllib player.mtl
o 円柱
v 0.000000 -1.000000 -1.000000
v 0.000000 1.000000 -1.000000
v 0.195090 -1.000000 -0.980785
v 0.195090 1.000000 -0.980785
v 0.382683 -1.000000 -0.923880
v 0.382683 1.000000 -0.923880
v 0.555570 -1.000000 -0.831470
v 0.555570 1.000000 -0.831470
v 0.707107 -1.000000 -0.707107
v 0.707107 1.000000 -0.707107
v 0.831470 -1.000000 -0.555570
v 0.831470 1.000000 -0.555570
v 0.923880 -1.000000 -0.382683
v 0.923880 1.000000 -0.382683
v 0.980785 -1.000000 -0.195090
v 0.980785 1.000000 -0.195090
v 1.000000 -1.000000 0.000000
v 1.000000 1.000000 0.000000
v 0.980785 -1.000000 0.195090
v 0.980785 1.000000 0.195090
v 0.923880 -1.000000 0.382683
v 0.923880 1.000000 0.382683
v 0.831470 -1.000000 0.555570
v 0.831470 1.000000 0.555570
v 0.707107 -1.000000 0.707107
v 0.707107 1.000000 0.707107
v 0.555570 -1.000000 0.831470
v 0.555570 1.000000 0.831470
v 0.382683 -1.000000 0.923880
v 0.382683 1.000000 0.923880
v 0.195090 -1.000000 0.980785
v 0.195090 1.000000 0.980785
v 0.000000 -1.000000 1.000000
v 0.000000 1.000000 1.000000
v -0.195090 -1.000000 0.980785
v -0.195090 1.000000 0.980785
v -0.382683 -1.000000 0.923880
v -0.382683 1.000000 0.923880
v -0.555570 -1.000000 0.831470
v -0.555570 1.000000 0.831470
v -0.707107 -1.000000 0.707107
v -0.707107 1.000000 0.707107
v -0.831470 -1.000000 0.555570
v -0.831470 1.000000 0.555570
v -0.923880 -1.000000 0.382683
v -0.923880 1.000000 0.382683
v -0.980785 -1.000000 0.195090
v -0.980785 1.000000 0.195090
v -1.000000 -1.000000 0.000000
v -1.000000 1.000000 0.000000
v -0.980785 -1.000000 -0.195090
v -0.980785 1.000000 -0.195090
v -0.923880 -1.000000 -0.382683
v -0.923880 1.000000 -0.382683
v -0.831470 -1.000000 -0.555570
v -0.831470 1.000000 -0.555570
v -0.707107 -1.000000 -0.707107
v -0.707107 1.000000 -0.707107
v -0.555570 -1.000000 -0.831470
v -0.555570 1.000000 -0.831470
v -0.382683 -1.000000 -0.923880
v -0.382683 1.000000 -0.923880
v -0.195090 -1.000000 -0.980785
v -0.195090 1.000000 -0.980785
v 0.097545 1.000000 -0.990393
v 0.288887 1.000000 -0.952332
v 0.469127 1.000000 -0.877675
v 0.631338 1.000000 -0.769288
v 0.769288 1.000000 -0.631338
v 0.877675 1.000000 -0.469127
v 0.952332 1.000000 -0.288887
v 0.990393 1.000000 -0.097545
v 0.990393 1.000000 0.097545
v 0.952332 1.000000 0.288887
v 0.877675 1.000000 0.469127
v 0.769288 1.000000 0.631338
v 0.631338 1.000000 0.769288
v 0.469127 1.000000 0.877675
v 0.288887 1.000000 0.952332
v 0.097545 1.000000 0.990393
v -0.097545 1.000000 0.990393
v -0.288887 1.000000 0.952332
v -0.469127 1.000000 0.877675
v -0.631338 1.000000 0.769288
v -0.769288 1.000000 0.631338
v -0.877675 1.000000 0.469127
v -0.952332 1.000000 0.288887
v -0.990393 1.000000 0.097545
v -0.990393 1.000000 -0.097545
v -0.952332 1.000000 -0.288887
v -0.877675 1.000000 -0.469127
v -0.769288 1.000000 -0.631338
v -0.631338 1.000000 -0.769288
v -0.469127 1.000000 -0.877675
v -0.288887 1.000000 -0.952332
v -0.097545 1.000000 -0.990393
vn 0.0980 -0.0000 -0.9952
vn 0.1951 -0.0000 -0.9808
vn 0.2903 -0.0000 -0.9569
vn 0.3827 -0.0000 -0.9239
vn 0.4714 -0.0000 -0.8819
vn 0.5556 -0.0000 -0.8315
vn 0.6344 -0.0000 -0.7730
vn 0.7071 -0.0000 -0.7071
vn 0.7730 -0.0000 -0.6344
vn 0.8315 -0.0000 -0.5556
vn 0.8819 -0.0000 -0.4714
vn 0.9239 -0.0000 -0.3827
vn 0.9569 -0.0000 -0.2903
vn 0.9808 -0.0000 -0.1951
vn 0.9952 -0.0000 -0.0980
vn 1.0000 -0.0000 -0.0000
vn 0.9952 -0.0000 0.0980
vn 0.9808 -0.0000 0.1951
vn 0.9569 -0.0000 0.2903
vn 0.9239 -0.0000 0.3827
vn 0.8819 -0.0000 0.4714
vn 0.8315 -0.0000 0.5556
vn 0.7730 -0.0000 0.6344
vn 0.7071 -0.0000 0.7071
vn 0.6344 -0.0000 0.7730
vn 0.5556 -0.0000 0.8315
vn 0.4714 -0.0000 0.8819
vn 0.3827 -0.0000 0.9239
vn 0.2903 -0.0000 0.9569
vn 0.1951 -0.0000 0.9808
vn 0.0980 -0.0000 0.9952
vn -0.0000 -0.0000 1.0000
vn -0.0980 -0.0000 0.9952
vn -0.1951 -0.0000 0.9808
vn -0.2903 -0.0000 0.9569
vn -0.3827 -0.0000 0.9239
vn -0.4714 -0.0000 0.8819
vn -0.5556 -0.0000 0.8315
vn -0.6344 -0.0000 0.7730
vn -0.7071 -0.0000 0.7071
vn -0.7730 -0.0000 0.6344
vn -0.8315 -0.0000 0.5556
vn -0.8819 -0.0000 0.4714
vn -0.9239 -0.0000 0.3827
vn -0.9569 -0.0000 0.2903
vn -0.9808 -0.0000 0.1951
vn -0.9952 -0.0000 0.0980
vn -1.0000 -0.0000 -0.0000
vn -0.9952 -0.0000 -0.0980
vn -0.9808 -0.0000 -0.1951
vn -0.9569 -0.0000 -0.2903
vn -0.9239 -0.0000 -0.3827
vn -0.8819 -0.0000 -0.4714
vn -0.8315 -0.0000 -0.5556
vn -0.7730 -0.0000 -0.6344
vn -0.7071 -0.0000 -0.7071
vn -0.6344 -0.0000 -0.7730
vn -0.5556 -0.0000 -0.8315
vn -0.4714 -0.0000 -0.8819
vn -0.3827 -0.0000 -0.9239
vn -0.2903 -0.0000 -0.9569
vn -0.1951 -0.0000 -0.9808
vn -0.0980 -0.0000 -0.9952
vn -0.0000 -0.0000 -1.0000
vn -0.0000 -1.0000 -0.0000
vt 0.984375 1.000000
vt 0.968750 1.000000
vt 0.968750 0.500000
vt 0.953125 1.000000
vt 0.937500 1.000000
vt 0.937500 0.500000
vt 0.921875 1.000000
vt 0.906250 1.000000
vt 0.906250 0.500000
vt 0.890625 1.000000
vt 0.875000 1.000000
vt 0.875000 0.500000
vt 0.859375 1.000000
vt 0.843750 1.000000
vt 0.843750 0.500000
vt 0.828125 1.000000
vt 0.812500 1.000000
vt 0.812500 0.500000
vt 0.796875 1.000000
vt 0.781250 1.000000
vt 0.781250 0.500000
vt 0.765625 1.000000
vt 0.750000 1.000000
vt 0.750000 0.500000
vt 0.734375 1.000000
vt 0.718750 1.000000
vt 0.718750 0.500000
vt 0.703125 1.000000
vt 0.687500 1.000000
vt 0.687500 0.500000
vt 0.671875 1.000000
vt 0.656250 1.000000
vt 0.656250 0.500000
vt 0.640625 1.000000
vt 0.625000 1.000000
vt 0.625000 0.500000
vt 0.609375 1.000000
vt 0.593750 1.000000
vt 0.593750 0.500000
vt 0.578125 1.000000
vt 0.562500 1.000000
vt 0.562500 0.500000
vt 0.546875 1.000000
vt 0.531250 1.000000
vt 0.531250 0.500000
vt 0.515625 1.000000
vt 0.500000 1.000000
vt 0.500000 0.500000
vt 0.484375 1.000000
vt 0.468750 1.000000
vt 0.468750 0.500000
vt 0.453125 1.000000
vt 0.437500 1.000000
vt 0.437500 0.500000
vt 0.421875 1.000000
vt 0.406250 1.000000
vt 0.406250 0.500000
vt 0.390625 1.000000
vt 0.375000 1.000000
vt 0.375000 0.500000
vt 0.359375 1.000000
vt 0.343750 1.000000
vt 0.343750 0.500000
vt 0.328125 1.000000
vt 0.312500 1.000000
vt 0.312500 0.500000
vt 0.296875 1.000000
vt 0.281250 1.000000
vt 0.281250 0.500000
vt 0.265625 1.000000
vt 0.250000 1.000000
vt 0.250000 0.500000
vt 0.234375 1.000000
vt 0.218750 1.000000
vt 0.218750 0.500000
vt 0.203125 1.000000
vt 0.187500 1.000000
vt 0.187500 0.500000
vt 0.171875 1.000000
vt 0.156250 1.000000
vt 0.156250 0.500000
vt 0.140625 1.000000
vt 0.125000 1.000000
vt 0.125000 0.500000
vt 0.109375 1.000000
vt 0.093750 1.000000
vt 0.093750 0.500000
vt 0.078125 1.000000
vt 0.062500 1.000000
vt 0.062500 0.500000
vt 0.046875 1.000000
vt 0.031250 1.000000
vt 0.031250 0.500000
vt 0.015625 1.000000
vt 0.000000 1.000000
vt 0.000000 0.500000
vt 0.796822 0.014612
vt 0.514612 0.203178
vt 0.703178 0.485388
vt 1.000000 0.500000
vt 1.000000 1.000000
vt 0.750000 0.490000
vt 0.796822 0.485388
vt 0.841844 0.471731
vt 0.883337 0.449553
vt 0.919706 0.419706
vt 0.949553 0.383337
vt 0.971731 0.341844
vt 0.985388 0.296822
vt 0.990000 0.250000
vt 0.985388 0.203178
vt 0.971731 0.158156
vt 0.949553 0.116663
vt 0.919706 0.080294
vt 0.883337 0.050447
vt 0.841844 0.028269
vt 0.750000 0.010000
vt 0.703178 0.014612
vt 0.658156 0.028269
vt 0.616663 0.050447
vt 0.580294 0.080294
vt 0.550447 0.116663
vt 0.528269 0.158156
vt 0.510000 0.250000
vt 0.514612 0.296822
vt 0.528269 0.341844
vt 0.550447 0.383337
vt 0.580294 0.419706
vt 0.616663 0.449553
vt 0.658156 0.471731
s 1
usemtl マテリアル
f 65/1/1 4/2/2 3/3/2
f 66/4/3 6/5/4 5/6/4
f 67/7/5 8/8/6 7/9/6
f 68/10/7 10/11/8 9/12/8
f 69/13/9 12/14/10 11/15/10
f 70/16/11 14/17/12 13/18/12
f 71/19/13 16/20/14 15/21/14
f 72/22/15 18/23/16 17/24/16
f 73/25/17 20/26/18 19/27/18
f 74/28/19 22/29/20 21/30/20
f 75/31/21 24/32/22 23/33/22
f 76/34/23 26/35/24 25/36/24
f 77/37/25 28/38/26 27/39/26
f 78/40/27 30/41/28 29/42/28
f 79/43/29 32/44/30 31/45/30
f 80/46/31 34/47/32 33/48/32
f 81/49/33 36/50/34 35/51/34
f 82/52/35 38/53/36 37/54/36
f 83/55/37 40/56/38 39/57/38
f 84/58/39 42/59/40 41/60/40
f 85/61/41 44/62/42 43/63/42
f 86/64/43 46/65/44 45/66/44
f 87/67/45 48/68/46 47/69/46
f 88/70/47 50/71/48 49/72/48
f 89/73/49 52/74/50 51/75/50
f 90/76/51 54/77/52 53/78/52
f 91/79/53 56/80/54 55/81/54
f 92/82/55 58/83/56 57/84/56
f 93/85/57 60/86/58 59/87/58
f 94/88/59 62/89/60 61/90/60
f 95/91/61 64/92/62 63/93/62
f 96/94/63 2/95/64 1/96/64
f 31/97/65 47/98/65 63/99/65
f 3/3/2 1/100/64 65/1/1
f 1/100/64 2/101/64 65/1/1
f 5/6/4 3/3/2 66/4/3
f 3/3/2 4/2/2 66/4/3
f 7/9/6 5/6/4 67/7/5
f 5/6/4 6/5/4 67/7/5
f 9/12/8 7/9/6 68/10/7
f 7/9/6 8/8/6 68/10/7
f 11/15/10 9/12/8 69/13/9
f 9/12/8 10/11/8 69/13/9
f 13/18/12 11/15/10 70/16/11
f 11/15/10 12/14/10 70/16/11
f 15/21/14 13/18/12 71/19/13
f 13/18/12 14/17/12 71/19/13
f 17/24/16 15/21/14 72/22/15
f 15/21/14 16/20/14 72/22/15
f 19/27/18 17/24/16 73/25/17
f 17/24/16 18/23/16 73/25/17
f 21/30/20 19/27/18 74/28/19
f 19/27/18 20/26/18 74/28/19
f 23/33/22 21/30/20 75/31/21
f 21/30/20 22/29/20 75/31/21
f 25/36/24 23/33/22 76/34/23
f 23/33/22 24/32/22 76/34/23
f 27/39/26 25/36/24 77/37/25
f 25/36/24 26/35/24 77/37/25
f 29/42/28 27/39/26 78/40/27
f 27/39/26 28/38/26 78/40/27
f 31/45/30 29/42/28 79/43/29
f 29/42/28 30/41/28 79/43/29
f 33/48/32 31/45/30 80/46/31
f 31/45/30 32/44/30 80/46/31
f 35/51/34 33/48/32 81/49/33
f 33/48/32 34/47/32 81/49/33
f 37/54/36 35/51/34 82/52/35
f 35/51/34 36/50/34 82/52/35
f 39/57/38 37/54/36 83/55/37
f 37/54/36 38/53/36 83/55/37
f 41/60/40 39/57/38 84/58/39
f 39/57/38 40/56/38 84/58/39
f 43/63/42 41/60/40 85/61/41
f 41/60/40 42/59/40 85/61/41
f 45/66/44 43/63/42 86/64/43
f 43/63/42 44/62/42 86/64/43
f 47/69/46 45/66/44 87/67/45
f 45/66/44 46/65/44 87/67/45
f 49/72/48 47/69/46 88/70/47
f 47/69/46 48/68/46 88/70/47
f 51/75/50 49/72/48 89/73/49
f 49/72/48 50/71/48 89/73/49
f 53/78/52 51/75/50 90/76/51
f 51/75/50 52/74/50 90/76/51
f 55/81/54 53/78/52 91/79/53
f 53/78/52 54/77/52 91/79/53
f 57/84/56 55/81/54 92/82/55
f 55/81/54 56/80/54 92/82/55
f 59/87/58 57/84/56 93/85/57
f 57/84/56 58/83/56 93/85/57
f 61/90/60 59/87/58 94/88/59
f 59/87/58 60/86/58 94/88/59
f 63/93/62 61/90/60 95/91/61
f 61/90/60 62/89/60 95/91/61
f 1/96/64 63/93/62 96/94/63
f 63/93/62 64/92/62 96/94/63
f 63/99/65 1/102/65 3/103/65
f 3/103/65 5/104/65 7/105/65
f 7/105/65 9/106/65 11/107/65
f 11/107/65 13/108/65 15/109/65
f 15/109/65 17/110/65 19/111/65
f 19/111/65 21/112/65 23/113/65
f 23/113/65 25/114/65 27/115/65
f 27/115/65 29/116/65 31/97/65
f 31/97/65 33/117/65 35/118/65
f 35/118/65 37/119/65 39/120/65
f 39/120/65 41/121/65 43/122/65
f 43/122/65 45/123/65 47/98/65
f 47/98/65 49/124/65 51/125/65
f 51/125/65 53/126/65 55/127/65
f 55/127/65 57/128/65 59/129/65
f 59/129/65 61/130/65 63/99/65
f 63/99/65 3/103/65 15/109/65
f 3/103/65 7/105/65 15/109/65
f 7/105/65 11/107/65 15/109/65
f 15/109/65 19/111/65 31/97/65
f 19/111/65 23/113/65 31/97/65
f 23/113/65 27/115/65 31/97/65
f 31/97/65 35/118/65 47/98/65
f 35/118/65 39/120/65 47/98/65
f 39/120/65 43/122/65 47/98/65
f 47/98/65 51/125/65 63/99/65
f 51/125/65 55/127/65 63/99/65
f 55/127/65 59/129/65 63/99/65
f 63/99/65 15/109/65 31/97/65
